#!OML:ASF H:\Terrain\Patient Classification 1\Takeo\Monday\TakeoMonday.ASF
:FULLY-SPECIFIED
:DEGREES
1196
root 10.7552 17.3364 -4.29181 21.3376 -64.4266 -15.4911
lowerback 16.4133 -0.927455 -3.53494
upperback 8.84433 -2.27065 -5.75281
thorax 0.122829 -1.31293 -3.70685
lowerneck -12.4382 12.2657 3.26489
upperneck -6.3129 15.7762 -9.15623
head 1.12707 7.69938 -2.6105
rclavicle -2.8625e-014 -1.90833e-014
rhumerus 3.18611 48.4146 -90.7218
rradius 42.2923
rwrist -18.5115
rhand -39.2187 13.5319
rfingers 7.12502
rthumb -12.2146 -16.0915
lclavicle -2.8625e-014 -1.90833e-014
lhumerus 11.9026 -8.29931 99.7036
lradius 42.6312
lwrist 58.1531
lhand -30.3802 25.3598
lfingers 7.12502
lthumb -3.68459 55.3077
rfemur -23.4449 19.0948 24.9448
rtibia 30.241
rfoot -11.5096 -4.55298
rtoes -7.36908
lfemur -27.9704 22.6617 -4.72782
ltibia 37.085
lfoot -12.9766 25.5509
ltoes 11.1704
1197
root 10.7445 17.3339 -4.29157 20.3206 -64.0995 -14.606
lowerback 16.2211 -0.872304 -3.2468
upperback 8.70916 -2.12001 -5.31928
thorax 0.0880497 -1.22773 -3.43221
lowerneck -12.4753 12.0753 2.6657
upperneck -6.24066 15.5952 -8.67981
head 1.04611 7.6226 -2.3767
rclavicle 3.49861e-014 -5.725e-014
rhumerus 3.69512 48.1961 -90.3842
rradius 42.298
rwrist -19.028
rhand -39.2472 13.8587
rfingers 7.12502
rthumb -12.242 -15.763
lclavicle 3.49861e-014 -5.725e-014
lhumerus 12.4852 -8.60729 99.8673
lradius 42.8254
lwrist 57.4601
lhand -30.9089 25.9199
lfingers 7.12502
lthumb -4.19515 55.8583
rfemur -23.1814 18.9284 24.7586
rtibia 30.4557
rfoot -11.732 -4.8649
rtoes -6.47841
lfemur -27.669 22.4148 -4.9907
ltibia 36.7414
lfoot -12.866 25.3784
ltoes 11.2384
1198
root 10.7233 17.3491 -4.28749 19.1962 -63.6954 -13.8747
lowerback 16.1473 -0.905417 -2.94954
upperback 8.58632 -2.0961 -4.9487
thorax -0.00270018 -1.20557 -3.20839
lowerneck -12.3574 12.0314 2.82894
upperneck -5.92936 15.5401 -8.57965
head 1.1314 7.58829 -2.37084
rclavicle -6.20208e-014 -6.36111e-014
rhumerus 3.94337 47.9796 -90.5366
rradius 42.1889
rwrist -19.3926
rhand -38.9156 13.6152
rfingers 7.12502
rthumb -11.9222 -16.0253
lclavicle -6.20208e-014 -6.36111e-014
lhumerus 12.8976 -8.70101 99.8456
lradius 43.0489
lwrist 56.6924
lhand -31.7818 25.0083
lfingers 7.12502
lthumb -5.03804 54.9284
rfemur -22.6199 18.7626 24.7385
rtibia 30.6639
rfoot -11.9838 -5.26415
rtoes -6.07144
lfemur -26.9839 21.7506 -5.00799
ltibia 36.366
lfoot -13.0886 25.3723
ltoes 11.4879
1199
root 10.7018 17.3674 -4.27892 17.9042 -63.6319 -12.775
lowerback 15.8774 -0.824464 -2.74905
upperback 8.44419 -1.93783 -4.82293
thorax -0.0100665 -1.11717 -3.21504
lowerneck -12.2761 11.9949 3.16959
upperneck -5.63434 15.4719 -8.42866
head 1.22732 7.54571 -2.37632
rclavicle -2.54444e-014 -1.11319e-014
rhumerus 4.18525 47.6272 -90.7249
rradius 42.2416
rwrist -19.7089
rhand -38.7149 14.52
rfingers 7.12502
rthumb -11.7287 -15.1317
lclavicle -2.54444e-014 -1.11319e-014
lhumerus 13.3469 -9.30993 99.425
lradius 43.2075
lwrist 56.1131
lhand -32.6391 23.9893
lfingers 7.12502
lthumb -5.86581 53.8881
rfemur -22.2475 18.7316 24.3659
rtibia 30.7799
rfoot -12.1773 -5.48276
rtoes -6.35776
lfemur -26.361 21.3833 -5.37978
ltibia 35.937
lfoot -12.9806 25.5005
ltoes 11.0032
1200
root 10.6854 17.3806 -4.26963 16.3999 -63.6071 -11.2784
lowerback 15.548 -0.640667 -2.6824
upperback 8.2648 -1.65993 -4.67773
thorax -0.0157724 -0.972776 -3.14369
lowerneck -12.2446 11.8112 3.04293
upperneck -5.41927 15.2537 -7.97777
head 1.22677 7.44184 -2.22625
rclavicle -9.54166e-015 4.45278e-014
rhumerus 4.40213 47.0105 -90.6916
rradius 42.3635
rwrist -19.8567
rhand -38.961 15.3925
rfingers 7.12502
rthumb -11.966 -14.2455
lclavicle -9.54166e-015 4.45278e-014
lhumerus 13.9062 -10.4038 99.111
lradius 43.2232
lwrist 55.7868
lhand -34.7833 22.8378
lfingers 7.12502
lthumb -7.93561 52.6688
rfemur -22.0258 18.6811 23.7233
rtibia 30.809
rfoot -12.3071 -5.63527
rtoes -7.98702
lfemur -25.9439 21.1638 -6.0766
ltibia 35.511
lfoot -12.6683 25.6463
ltoes 9.77614
1201
root 10.6618 17.3893 -4.26541 15.0892 -63.2366 -10.2846
lowerback 15.414 -0.555443 -2.43022
upperback 8.14184 -1.49279 -4.42621
thorax -0.0708073 -0.880249 -3.04517
lowerneck -12.0628 11.5889 3.04609
upperneck -5.31145 14.9645 -7.66453
head 1.18813 7.30334 -2.1566
rclavicle 3.02153e-014 -1.43125e-014
rhumerus 4.39952 46.3188 -90.9615
rradius 42.5427
rwrist -20.0402
rhand -39.4483 15.2596
rfingers 7.12502
rthumb -12.436 -14.3505
lclavicle 3.02153e-014 -1.43125e-014
lhumerus 14.4268 -11.388 98.8365
lradius 43.2751
lwrist 55.4248
lhand -36.6205 21.8172
lfingers 7.12502
lthumb -9.70854 51.5735
rfemur -21.441 18.4902 23.5252
rtibia 30.8844
rfoot -12.5652 -5.83574
rtoes -8.88158
lfemur -25.3408 20.9681 -6.41631
ltibia 35.055
lfoot -12.1523 25.6161
ltoes 8.32536
